<?xml version="1.0" encoding="UTF-8" standalone="no"?>
<!-- Created with Inkscape (http://www.inkscape.org/) -->

<svg
   width="62.02359mm"
   height="41.352661mm"
   viewBox="0 0 62.02359 41.352661"
   version="1.1"
   id="svg5"
   xml:space="preserve"
   sodipodi:docname="位图.svg"
   inkscape:export-filename="位图1.svg"
   inkscape:export-xdpi="96"
   inkscape:export-ydpi="96"
   xmlns:inkscape="http://www.inkscape.org/namespaces/inkscape"
   xmlns:sodipodi="http://sodipodi.sourceforge.net/DTD/sodipodi-0.dtd"
   xmlns="http://www.w3.org/2000/svg"
   xmlns:svg="http://www.w3.org/2000/svg"><sodipodi:namedview
     id="namedview7"
     pagecolor="#ffffff"
     bordercolor="#000000"
     borderopacity="0.25"
     inkscape:showpageshadow="2"
     inkscape:pageopacity="0.0"
     inkscape:pagecheckerboard="0"
     inkscape:deskcolor="#d1d1d1"
     inkscape:document-units="mm"
     showgrid="false" /><defs
     id="defs2" /><g
     inkscape:label="图层 1"
     inkscape:groupmode="layer"
     id="layer1"
     transform="translate(-66.848024,-158.77659)"><g
       id="g5692"><path
         style="fill:#d03050;fill-opacity:1;stroke-width:0.264583"
         d="m 106.98481,184.32674 c -2.62673,-0.93656 -4.03931,-4.09099 -3.34014,-7.45888 0.61923,-2.9828 2.86597,-4.45592 6.54101,-4.28874 1.74079,0.0792 2.27151,0.21617 3.18833,0.82291 2.06403,1.36594 2.92738,4.44848 2.07099,7.39436 -0.5005,1.72167 -1.9226,3.1886 -3.52159,3.63262 -1.38233,0.38385 -3.71041,0.33564 -4.9386,-0.10227 z"
         id="path1316" /><path
         id="path1314"
         style="fill:#2080f0;fill-opacity:1;stroke-width:0.264583"
         d="m 108.02183,158.77687 c -4.47513,-0.0236 -9.048472,1.36903 -13.030729,4.3832 l -1.758032,1.33066 h -3.840076 c -2.111908,0 -4.053472,0.11481 -4.314982,0.25477 -0.26152,0.13996 -0.625606,0.6162 -0.808736,1.05833 -0.40725,0.9832 -0.01244,2.16415 0.873332,2.61328 0.329069,0.16686 2.381736,0.32479 4.768184,0.36639 l 4.190959,0.0729 0.637687,0.74259 c 0.767599,0.89327 0.819748,2.01671 0.132808,2.86598 -0.503889,0.62297 -0.52445,0.6251 -7.828462,0.75705 l -7.323068,0.1323 -0.638204,0.74259 c -0.833979,0.9702 -0.82949,2.1326 0.01137,2.97346 0.62809,0.62813 0.771788,0.64957 4.378544,0.64957 4.196026,0 5.047626,0.24506 5.515426,1.58698 0.32231,0.92457 0.18682,1.46911 -0.575159,2.31563 -0.514999,0.57211 -0.707462,0.59531 -4.948018,0.59531 -5.091515,0 -5.967743,0.19915 -6.501412,1.47639 -0.40658,0.97308 -0.28756,1.54241 0.507979,2.42621 0.52842,0.58731 0.627719,0.59531 7.117912,0.59531 7.280943,0 7.852008,0.10834 8.367448,1.58699 0.32231,0.92457 0.18682,1.4691 -0.575159,2.31562 -0.499069,0.55441 -0.754894,0.59545 -3.730521,0.59945 -3.459347,0.004 -4.253397,0.22221 -4.881356,1.341 -0.46441,0.8274 -0.244116,1.87767 0.548804,2.61638 0.535519,0.49894 0.919461,0.53663 5.486486,0.53743 l 4.911328,5.2e-4 1.5875,1.05833 c 1.974938,1.31637 4.721867,2.47618 7.143747,3.01584 1.29781,0.28919 2.84186,0.38611 5.15938,0.32401 2.87956,-0.0771 3.63236,-0.19819 5.82083,-0.93483 2.99573,-1.00838 5.49275,-2.4329 7.53339,-4.29793 6.19821,-5.66482 8.46211,-14.17614 5.82962,-21.91597 -3.03887,-8.93463 -11.22539,-14.14062 -19.76882,-14.1857 z m 2.66392,7.13652 c 6.27929,0.0595 10.64238,2.98985 12.48658,8.42377 0.69598,2.05069 0.82981,6.16966 0.27543,8.46667 -1.2434,5.15188 -4.73,8.60282 -9.77098,9.67124 -3.97329,0.84213 -8.58647,0.0908 -11.5595,-1.88257 -3.297175,-2.18855 -5.139522,-6.22582 -5.148522,-11.28148 -0.01382,-8.1343 4.489472,-12.97604 12.435932,-13.37128 0.43548,-0.0217 0.86244,-0.0303 1.28106,-0.0264 z" /><path
         style="fill:#f0a020;fill-opacity:1;stroke-width:0.264583"
         d="m 76.037909,167.70967 c -0.235579,-0.13765 -0.577445,-0.61028 -0.759704,-1.05029 -0.388027,-0.93678 0.0061,-2.23193 0.810047,-2.66221 0.62096,-0.33233 4.109986,-0.32899 4.73317,0.004 1.134217,0.60701 1.173867,2.77206 0.06618,3.61363 -0.530924,0.40337 -4.198694,0.47472 -4.849693,0.0944 z"
         id="path1310" /><path
         style="fill:#18a058;fill-opacity:1;stroke-width:0.264583"
         d="m 67.599007,176.80386 c -0.803973,-0.74901 -0.965364,-1.64184 -0.469957,-2.59985 0.576693,-1.1152 1.814826,-1.43567 5.106997,-1.32183 2.40052,0.083 2.747157,0.15874 3.358937,0.73398 0.909562,0.85523 0.923712,2.1838 0.03275,3.07476 -0.622171,0.62217 -0.792227,0.64943 -4.051152,0.64943 -3.051477,0 -3.46101,-0.0552 -3.977575,-0.53649 z"
         id="path1308" /></g></g></svg>
