<svg xmlns="http://www.w3.org/2000/svg" xmlns:xlink="http://www.w3.org/1999/xlink" viewBox="0 0 20 20"><g fill="none"><path d="M1.91 7.383a8.491 8.491 0 0 1 1.78-3.08a.5.5 0 0 1 .54-.135l1.918.686a1 1 0 0 0 1.32-.762l.366-2.006a.5.5 0 0 1 .388-.4a8.532 8.532 0 0 1 3.555 0a.5.5 0 0 1 .387.4l.367 2.006a1 1 0 0 0 1.32.762l1.918-.686a.5.5 0 0 1 .54.136a8.491 8.491 0 0 1 1.78 3.079a.5.5 0 0 1-.152.535l-1.555 1.32a1 1 0 0 0 0 1.524l1.555 1.32a.5.5 0 0 1 .152.535a8.491 8.491 0 0 1-1.78 3.08a.5.5 0 0 1-.54.135l-1.918-.686a1 1 0 0 0-1.32.762l-.367 2.007a.5.5 0 0 1-.387.399a8.53 8.53 0 0 1-3.555 0a.5.5 0 0 1-.388-.4l-.365-2.006a1 1 0 0 0-1.32-.762l-1.919.686a.5.5 0 0 1-.54-.136a8.49 8.49 0 0 1-1.78-3.079a.5.5 0 0 1 .153-.535l1.554-1.32a1 1 0 0 0 0-1.524l-1.554-1.32a.5.5 0 0 1-.153-.535zm1.061-.006l1.294 1.098a2 2 0 0 1 0 3.05L2.97 12.623c.292.782.714 1.51 1.245 2.152l1.596-.57a2 2 0 0 1 2.64 1.525l.305 1.668a7.556 7.556 0 0 0 2.485 0l.305-1.67a1.998 1.998 0 0 1 2.64-1.524l1.597.571a7.492 7.492 0 0 0 1.245-2.152l-1.294-1.098a1.998 1.998 0 0 1 0-3.05l1.294-1.098a7.491 7.491 0 0 0-1.245-2.152l-1.596.57a2 2 0 0 1-2.64-1.524l-.306-1.669a7.555 7.555 0 0 0-2.485 0l-.304 1.669a2 2 0 0 1-2.641 1.525l-1.596-.571a7.491 7.491 0 0 0-1.245 2.152zM7.5 10a2.5 2.5 0 1 1 5 0a2.5 2.5 0 0 1-5 0zm1 0a1.5 1.5 0 1 0 3 0a1.5 1.5 0 0 0-3 0z" fill="currentColor"></path></g></svg>